<svg width="5920" height="2960" viewBox="0 0 5920 2960" fill="none" xmlns="http://www.w3.org/2000/svg">
<rect width="5920" height="2960" rx="200" fill="white"/>
<path d="M2247.58 1758L2310.83 1400H2439.58C2476.58 1400 2504.08 1409.67 2522.08 1429C2540.24 1448.33 2546.41 1474.58 2540.58 1507.75C2534.91 1539.25 2520.24 1564.5 2496.58 1583.5C2472.91 1602.5 2443.66 1612 2408.83 1612H2298.83L2306.58 1567.5H2406.08C2428.58 1567.5 2446.58 1562.17 2460.08 1551.5C2473.74 1540.83 2482.41 1525.67 2486.08 1506C2489.41 1486.67 2486.24 1472 2476.58 1462C2467.08 1451.83 2451.08 1446.75 2428.58 1446.75H2357.83L2302.83 1758H2247.58ZM2459.33 1758L2387.58 1594L2444.33 1586.25L2520.83 1758H2459.33ZM2664.16 1762.75C2625.99 1762.75 2595.49 1749.58 2572.66 1723.25C2549.99 1696.92 2542.16 1664.08 2549.16 1624.75C2556.32 1584.58 2574.74 1552.17 2604.41 1527.5C2634.07 1502.67 2668.49 1490.25 2707.66 1490.25C2745.32 1490.25 2774.32 1502.58 2794.66 1527.25C2814.99 1551.75 2821.99 1582 2815.66 1618L2811.91 1639.25H2572.66L2578.91 1603.5H2769.91C2772.24 1583 2767.49 1566.42 2755.66 1553.75C2743.99 1540.92 2726.41 1534.5 2702.91 1534.5C2677.91 1534.5 2655.24 1542.75 2634.91 1559.25C2614.74 1575.75 2602.07 1598 2596.91 1626C2592.24 1653.17 2596.82 1675.5 2610.66 1693C2624.49 1710.5 2644.32 1719.25 2670.16 1719.25C2683.16 1719.25 2694.74 1717.42 2704.91 1713.75C2715.24 1710.08 2724.91 1704.75 2733.91 1697.75C2743.07 1690.75 2752.32 1680.92 2761.66 1668.25L2799.66 1687.5C2788.16 1705.5 2776.24 1719.67 2763.91 1730C2751.74 1740.17 2737.66 1748.17 2721.66 1754C2705.66 1759.83 2686.49 1762.75 2664.16 1762.75ZM2949.79 1762.75C2909.46 1762.75 2878.54 1749.58 2857.04 1723.25C2835.71 1696.92 2828.79 1662.58 2836.29 1620.25C2843.12 1581.58 2860.21 1550.25 2887.54 1526.25C2914.87 1502.25 2948.04 1490.25 2987.04 1490.25C3006.54 1490.25 3023.12 1492.92 3036.79 1498.25C3050.62 1503.42 3062.62 1511.25 3072.79 1521.75C3082.96 1532.08 3092.04 1547.75 3100.04 1568.75L3054.04 1586.25C3048.87 1573.08 3043.54 1563.33 3038.04 1557C3032.54 1550.5 3025.29 1545.5 3016.29 1542C3007.29 1538.33 2996.46 1536.5 2983.79 1536.5C2958.79 1536.5 2937.37 1544.33 2919.54 1560C2901.87 1575.67 2890.87 1596 2886.54 1621C2881.71 1647.83 2885.79 1670.42 2898.79 1688.75C2911.79 1707.08 2930.96 1716.25 2956.29 1716.25C2967.79 1716.25 2978.29 1714.42 2987.79 1710.75C2997.29 1707.08 3005.96 1701.75 3013.79 1694.75C3021.62 1687.75 3030.12 1677.67 3039.29 1664.5L3082.29 1683.5C3071.79 1702.5 3060.04 1717.58 3047.04 1728.75C3034.21 1739.75 3019.71 1748.17 3003.54 1754C2987.37 1759.83 2969.46 1762.75 2949.79 1762.75ZM3187.92 1762.75C3159.25 1762.75 3136.67 1754.92 3120.17 1739.25C3103.83 1723.42 3097.83 1703.08 3102.17 1678.25C3106.83 1651.75 3120.5 1630.92 3143.17 1615.75C3165.83 1600.42 3193.67 1592.75 3226.67 1592.75C3239.17 1592.75 3251.92 1594.33 3264.92 1597.5C3278.08 1600.67 3289.33 1605 3298.67 1610.5L3302.17 1591.25C3305.5 1572.58 3301.67 1558.25 3290.67 1548.25C3279.67 1538.25 3265.42 1533.25 3247.92 1533.25C3238.58 1533.25 3229.75 1534.5 3221.42 1537C3213.08 1539.5 3205.25 1542.92 3197.92 1547.25C3190.58 1551.58 3183.42 1556.75 3176.42 1562.75C3169.42 1568.75 3165.92 1571.75 3165.92 1571.75L3134.92 1543.75C3134.92 1543.75 3139.17 1539.83 3147.67 1532C3156.33 1524.17 3166.42 1516.92 3177.92 1510.25C3189.58 1503.58 3202.08 1498.58 3215.42 1495.25C3228.92 1491.92 3243.67 1490.25 3259.67 1490.25C3292 1490.25 3317 1499.42 3334.67 1517.75C3352.33 1535.92 3358.42 1560.33 3352.92 1591L3323.42 1758H3273.92L3282.42 1712L3285.67 1716.5H3281.67C3269.33 1732 3255.17 1743.58 3239.17 1751.25C3223.33 1758.92 3206.25 1762.75 3187.92 1762.75ZM3202.92 1720.75C3226.25 1720.75 3246.25 1712.42 3262.92 1695.75C3279.58 1678.92 3289.42 1662.33 3292.42 1646V1645.5C3285.92 1640.5 3277 1636.5 3265.67 1633.5C3254.33 1630.5 3241.83 1629 3228.17 1629C3208 1629 3191.17 1633.17 3177.67 1641.5C3164.33 1649.83 3156.33 1661.5 3153.67 1676.5C3151.17 1690.67 3154.33 1701.58 3163.17 1709.25C3172.17 1716.92 3185.42 1720.75 3202.92 1720.75ZM3463.15 1762.75C3446.15 1762.75 3431.15 1760.25 3418.15 1755.25C3405.15 1750.25 3394.9 1743.67 3387.4 1735.5C3379.9 1727.33 3374.24 1718.75 3370.4 1709.75C3366.57 1700.58 3364.65 1696 3364.65 1696L3405.65 1677C3405.65 1677 3407.4 1680.92 3410.9 1688.75C3414.57 1696.42 3418.65 1702.58 3423.15 1707.25C3427.65 1711.92 3433.82 1715.67 3441.65 1718.5C3449.49 1721.33 3459.32 1722.75 3471.15 1722.75C3485.49 1722.75 3497.99 1719.33 3508.65 1712.5C3519.49 1705.67 3525.9 1697.5 3527.9 1688C3529.57 1678.17 3528.15 1670.42 3523.65 1664.75C3519.15 1658.92 3505.15 1652.83 3481.65 1646.5C3445.82 1637 3422.15 1625.67 3410.65 1612.5C3399.32 1599.33 3395.4 1583.67 3398.9 1565.5C3402.74 1542.83 3414.57 1524.67 3434.4 1511C3454.24 1497.17 3479.65 1490.25 3510.65 1490.25C3522.49 1490.25 3533.4 1491.92 3543.4 1495.25C3553.57 1498.42 3562.49 1503.33 3570.15 1510C3577.99 1516.67 3584.07 1524.17 3588.4 1532.5C3592.9 1540.83 3595.15 1545 3595.15 1545L3556.65 1566.25C3556.65 1566.25 3554.82 1563.25 3551.15 1557.25C3547.49 1551.25 3543.32 1546.25 3538.65 1542.25C3534.15 1538.08 3528.99 1535.17 3523.15 1533.5C3517.32 1531.67 3510.24 1530.75 3501.9 1530.75C3488.07 1530.75 3475.99 1533.83 3465.65 1540C3455.49 1546 3449.65 1553.5 3448.15 1562.5C3446.65 1572 3448.65 1579.33 3454.15 1584.5C3459.65 1589.67 3476.57 1596.17 3504.9 1604C3536.9 1612.5 3558.07 1622.67 3568.4 1634.5C3578.74 1646.33 3581.9 1663.08 3577.9 1684.75C3573.4 1709.92 3560.15 1729.25 3538.15 1742.75C3516.15 1756.08 3491.15 1762.75 3463.15 1762.75ZM3675.89 1762.75C3656.72 1762.75 3641.14 1756.92 3629.14 1745.25C3617.31 1733.58 3613.81 1714.33 3618.64 1687.5L3663.89 1431H3714.64L3669.39 1687C3667.22 1699.83 3668.22 1708.5 3672.39 1713C3676.72 1717.5 3683.39 1719.75 3692.39 1719.75C3696.06 1719.75 3699.97 1719.42 3704.14 1718.75C3708.31 1717.92 3712.89 1716.83 3717.89 1715.5C3722.89 1714 3725.39 1713.25 3725.39 1713.25L3718.14 1754.5C3718.14 1754.5 3715.31 1755.42 3709.64 1757.25C3703.97 1759.08 3698.39 1760.42 3692.89 1761.25C3687.56 1762.25 3681.89 1762.75 3675.89 1762.75ZM3604.39 1537.5L3612.14 1495H3765.39L3758.39 1537.5H3604.39Z" fill="black"/>
<path d="M1077.47 2124.1C1070.85 2124.1 1065.04 2122.54 1060.04 2119.41C1055.05 2116.28 1051.18 2111.9 1048.42 2106.25C1045.67 2100.56 1044.29 2093.95 1044.29 2086.44V2084.41C1044.29 2076.85 1045.67 2070.25 1048.42 2064.6C1051.18 2058.95 1055.05 2054.57 1060.04 2051.44C1065.04 2048.31 1070.85 2046.75 1077.47 2046.75C1084.15 2046.75 1089.96 2048.31 1094.9 2051.44C1099.9 2054.57 1103.77 2058.95 1106.52 2064.6C1109.28 2070.25 1110.65 2076.85 1110.65 2084.41V2086.44C1110.65 2093.95 1109.28 2100.56 1106.52 2106.25C1103.77 2111.9 1099.9 2116.28 1094.9 2119.41C1089.96 2122.54 1084.15 2124.1 1077.47 2124.1ZM1077.47 2114.58C1084.57 2114.58 1090.14 2112.08 1094.2 2107.09C1098.26 2102.05 1100.29 2095.1 1100.29 2086.23V2084.62C1100.29 2075.75 1098.26 2068.82 1094.2 2063.83C1090.14 2058.79 1084.57 2056.27 1077.47 2056.27C1070.38 2056.27 1064.8 2058.79 1060.74 2063.83C1056.68 2068.82 1054.65 2075.75 1054.65 2084.62V2086.23C1054.65 2095.1 1056.68 2102.05 1060.74 2107.09C1064.8 2112.08 1070.38 2114.58 1077.47 2114.58ZM1163.52 2046.75C1169.58 2046.75 1174.88 2048.31 1179.41 2051.44C1183.98 2054.57 1187.53 2058.93 1190.05 2064.53C1192.61 2070.08 1193.9 2076.57 1193.9 2083.99V2086.86C1193.9 2094.28 1192.68 2100.79 1190.26 2106.39C1187.83 2111.99 1184.42 2116.35 1180.04 2119.48C1175.65 2122.56 1170.49 2124.1 1164.57 2124.1C1159.29 2124.1 1154.7 2122.91 1150.78 2120.53C1146.9 2118.15 1143.68 2114.95 1141.12 2110.94H1140.77V2151.05H1130.9V2048.85H1139.72V2061.24H1140.14C1142.42 2056.71 1145.57 2053.17 1149.59 2050.6C1153.65 2048.03 1158.29 2046.75 1163.52 2046.75ZM1162.33 2056.13C1155.65 2056.13 1150.31 2058.72 1146.3 2063.9C1142.33 2069.03 1140.35 2075.92 1140.35 2084.55V2086.44C1140.35 2095.07 1142.33 2101.96 1146.3 2107.09C1150.31 2112.18 1155.65 2114.72 1162.33 2114.72C1169 2114.72 1174.23 2112.2 1178.01 2107.16C1181.79 2102.12 1183.68 2095.19 1183.68 2086.37V2084.48C1183.68 2075.71 1181.76 2068.8 1177.94 2063.76C1174.11 2058.67 1168.91 2056.13 1162.33 2056.13ZM1247.46 2124.1C1240.65 2124.1 1234.68 2122.54 1229.54 2119.41C1224.46 2116.28 1220.49 2111.9 1217.64 2106.25C1214.84 2100.6 1213.44 2094.02 1213.44 2086.51V2083.5C1213.44 2076.13 1214.82 2069.69 1217.57 2064.18C1220.37 2058.67 1224.29 2054.4 1229.33 2051.37C1234.37 2048.29 1240.23 2046.75 1246.9 2046.75C1252.92 2046.75 1258.17 2048.08 1262.65 2050.74C1267.13 2053.35 1270.61 2057.06 1273.08 2061.87C1275.56 2066.63 1276.79 2072.21 1276.79 2078.6C1276.79 2080.33 1276.75 2082.01 1276.65 2083.64C1276.56 2085.27 1276.4 2086.91 1276.16 2088.54H1220.3V2079.16H1266.43V2078.6C1266.43 2071.79 1264.64 2066.35 1261.04 2062.29C1257.5 2058.18 1252.71 2056.13 1246.69 2056.13C1239.65 2056.13 1234.02 2058.6 1229.82 2063.55C1225.62 2068.45 1223.52 2075.22 1223.52 2083.85V2086.16C1223.52 2094.84 1225.72 2101.75 1230.1 2106.88C1234.49 2111.97 1240.42 2114.51 1247.88 2114.51C1256.89 2114.51 1263.82 2110.57 1268.67 2102.68L1276.3 2108.84C1273.04 2114.02 1269.05 2117.87 1264.33 2120.39C1259.62 2122.86 1254 2124.1 1247.46 2124.1ZM1301.38 2122V2048.85H1310.41V2060.19H1310.9C1313.7 2055.85 1317.18 2052.54 1321.33 2050.25C1325.48 2047.92 1330.13 2046.75 1335.26 2046.75C1343.05 2046.75 1349.03 2049.29 1353.18 2054.38C1357.38 2059.42 1359.48 2066.21 1359.48 2074.75V2122H1349.68V2075.8C1349.68 2069.27 1348.21 2064.32 1345.27 2060.96C1342.38 2057.6 1338.15 2055.92 1332.6 2055.92C1326.35 2055.92 1321.21 2058.07 1317.2 2062.36C1313.19 2066.65 1311.18 2072.51 1311.18 2079.93V2122H1301.38ZM1382.73 2083.29V2073.07H1443.77V2083.29H1382.73ZM1501.26 2124.1C1493.47 2124.1 1486.7 2122.49 1480.96 2119.27C1475.27 2116 1470.76 2111.22 1467.45 2104.92L1475.92 2100.09C1478.25 2104.71 1481.59 2108.28 1485.93 2110.8C1490.32 2113.32 1495.33 2114.58 1500.98 2114.58C1505.79 2114.58 1509.59 2113.6 1512.39 2111.64C1515.19 2109.68 1516.59 2107.07 1516.59 2103.8V2102.96C1516.59 2099.83 1515.45 2097.34 1513.16 2095.47C1510.92 2093.56 1507.16 2091.95 1501.89 2090.64L1491.88 2088.12C1485.77 2086.58 1481.05 2084.11 1477.74 2080.7C1474.43 2077.29 1472.77 2072.98 1472.77 2067.75V2067.61C1472.77 2061.22 1475.1 2056.15 1479.77 2052.42C1484.48 2048.64 1490.85 2046.75 1498.88 2046.75C1505.55 2046.75 1511.15 2047.94 1515.68 2050.32C1520.25 2052.7 1523.92 2056.39 1526.67 2061.38L1518.2 2066.21C1514.61 2059.58 1508.12 2056.27 1498.74 2056.27C1493.79 2056.27 1489.94 2057.2 1487.19 2059.07C1484.48 2060.89 1483.13 2063.48 1483.13 2066.84V2067.4C1483.13 2070.15 1484.13 2072.42 1486.14 2074.19C1488.15 2075.92 1491.39 2077.34 1495.87 2078.46L1505.88 2080.98C1513.16 2082.8 1518.48 2085.46 1521.84 2088.96C1525.25 2092.41 1526.95 2096.99 1526.95 2102.68V2102.96C1526.95 2109.31 1524.59 2114.42 1519.88 2118.29C1515.17 2122.16 1508.96 2124.1 1501.26 2124.1ZM1581.14 2124.1C1574.52 2124.1 1568.71 2122.54 1563.71 2119.41C1558.72 2116.28 1554.85 2111.9 1552.09 2106.25C1549.34 2100.56 1547.96 2093.95 1547.96 2086.44V2084.41C1547.96 2076.85 1549.34 2070.25 1552.09 2064.6C1554.85 2058.95 1558.72 2054.57 1563.71 2051.44C1568.71 2048.31 1574.52 2046.75 1581.14 2046.75C1587.82 2046.75 1593.63 2048.31 1598.57 2051.44C1603.57 2054.57 1607.44 2058.95 1610.19 2064.6C1612.95 2070.25 1614.32 2076.85 1614.32 2084.41V2086.44C1614.32 2093.95 1612.95 2100.56 1610.19 2106.25C1607.44 2111.9 1603.57 2116.28 1598.57 2119.41C1593.63 2122.54 1587.82 2124.1 1581.14 2124.1ZM1581.14 2114.58C1588.24 2114.58 1593.81 2112.08 1597.87 2107.09C1601.93 2102.05 1603.96 2095.1 1603.96 2086.23V2084.62C1603.96 2075.75 1601.93 2068.82 1597.87 2063.83C1593.81 2058.79 1588.24 2056.27 1581.14 2056.27C1574.05 2056.27 1568.47 2058.79 1564.41 2063.83C1560.35 2068.82 1558.32 2075.75 1558.32 2084.62V2086.23C1558.32 2095.1 1560.35 2102.05 1564.41 2107.09C1568.47 2112.08 1574.05 2114.58 1581.14 2114.58ZM1660.61 2124.1C1653.1 2124.1 1647.1 2121.74 1642.62 2117.03C1638.14 2112.27 1635.9 2105.67 1635.9 2097.22V2048.85H1645.77V2095.82C1645.77 2102.03 1647.19 2106.76 1650.04 2110.03C1652.93 2113.3 1657.13 2114.93 1662.64 2114.93C1668.57 2114.93 1673.47 2112.76 1677.34 2108.42C1681.21 2104.03 1683.15 2098.29 1683.15 2091.2V2048.85H1692.95V2122H1683.92V2110.66H1683.5C1681.07 2114.77 1677.95 2118.03 1674.12 2120.46C1670.29 2122.89 1665.79 2124.1 1660.61 2124.1ZM1734.76 2116.4V2048.85H1743.79V2063.62H1744.28C1746.56 2058.3 1749.74 2054.17 1753.8 2051.23C1757.9 2048.24 1762.52 2046.75 1767.66 2046.75C1771.48 2046.75 1774.82 2047.5 1777.67 2048.99C1780.51 2050.44 1783.15 2052.75 1785.58 2055.92L1777.6 2064.39C1775.45 2061.68 1773.21 2059.75 1770.88 2058.58C1768.54 2057.37 1765.84 2056.76 1762.76 2056.76C1757.11 2056.76 1752.63 2059.19 1749.32 2064.04C1746 2068.85 1744.35 2075.43 1744.35 2083.78V2116.4H1734.76ZM1716.28 2122V2113.53H1768.15V2122H1716.28ZM1717.68 2057.32V2048.85H1739.52V2057.32H1717.68ZM1838.58 2124.1C1831.67 2124.1 1825.61 2122.54 1820.38 2119.41C1815.15 2116.24 1811.09 2111.83 1808.2 2106.18C1805.31 2100.49 1803.86 2093.91 1803.86 2086.44V2084.34C1803.86 2076.87 1805.26 2070.32 1808.06 2064.67C1810.86 2059.02 1814.76 2054.64 1819.75 2051.51C1824.79 2048.34 1830.62 2046.75 1837.25 2046.75C1843.5 2046.75 1848.75 2048.08 1853 2050.74C1857.29 2053.35 1861.07 2057.2 1864.34 2062.29L1856.57 2068.45C1854.42 2064.53 1851.76 2061.54 1848.59 2059.49C1845.42 2057.44 1841.66 2056.41 1837.32 2056.41C1830.18 2056.41 1824.51 2058.86 1820.31 2063.76C1816.16 2068.66 1814.08 2075.36 1814.08 2083.85V2087.07C1814.08 2095.38 1816.27 2102.03 1820.66 2107.02C1825.09 2111.97 1831 2114.44 1838.37 2114.44C1842.66 2114.44 1846.47 2113.48 1849.78 2111.57C1853.14 2109.61 1856.22 2106.53 1859.02 2102.33L1866.3 2108.91C1863.92 2112.32 1861.31 2115.14 1858.46 2117.38C1855.61 2119.62 1852.53 2121.3 1849.22 2122.42C1845.91 2123.54 1842.36 2124.1 1838.58 2124.1ZM1919.03 2124.1C1912.21 2124.1 1906.24 2122.54 1901.11 2119.41C1896.02 2116.28 1892.05 2111.9 1889.21 2106.25C1886.41 2100.6 1885.01 2094.02 1885.01 2086.51V2083.5C1885.01 2076.13 1886.38 2069.69 1889.14 2064.18C1891.94 2058.67 1895.86 2054.4 1900.9 2051.37C1905.94 2048.29 1911.79 2046.75 1918.47 2046.75C1924.49 2046.75 1929.74 2048.08 1934.22 2050.74C1938.7 2053.35 1942.17 2057.06 1944.65 2061.87C1947.12 2066.63 1948.36 2072.21 1948.36 2078.6C1948.36 2080.33 1948.31 2082.01 1948.22 2083.64C1948.12 2085.27 1947.96 2086.91 1947.73 2088.54H1891.87V2079.16H1938V2078.6C1938 2071.79 1936.2 2066.35 1932.61 2062.29C1929.06 2058.18 1924.28 2056.13 1918.26 2056.13C1911.21 2056.13 1905.59 2058.6 1901.39 2063.55C1897.19 2068.45 1895.09 2075.22 1895.09 2083.85V2086.16C1895.09 2094.84 1897.28 2101.75 1901.67 2106.88C1906.05 2111.97 1911.98 2114.51 1919.45 2114.51C1928.45 2114.51 1935.38 2110.57 1940.24 2102.68L1947.87 2108.84C1944.6 2114.02 1940.61 2117.87 1935.9 2120.39C1931.18 2122.86 1925.56 2124.1 1919.03 2124.1ZM2086.92 2046.75C2092.98 2046.75 2098.28 2048.31 2102.81 2051.44C2107.38 2054.57 2110.93 2058.93 2113.45 2064.53C2116.01 2070.08 2117.3 2076.57 2117.3 2083.99V2086.86C2117.3 2094.28 2116.08 2100.79 2113.66 2106.39C2111.23 2111.99 2107.82 2116.35 2103.44 2119.48C2099.05 2122.56 2093.89 2124.1 2087.97 2124.1C2082.69 2124.1 2078.1 2122.91 2074.18 2120.53C2070.3 2118.15 2067.08 2114.95 2064.52 2110.94H2064.17V2151.05H2054.3V2048.85H2063.12V2061.24H2063.54C2065.82 2056.71 2068.97 2053.17 2072.99 2050.6C2077.05 2048.03 2081.69 2046.75 2086.92 2046.75ZM2085.73 2056.13C2079.05 2056.13 2073.71 2058.72 2069.7 2063.9C2065.73 2069.03 2063.75 2075.92 2063.75 2084.55V2086.44C2063.75 2095.07 2065.73 2101.96 2069.7 2107.09C2073.71 2112.18 2079.05 2114.72 2085.73 2114.72C2092.4 2114.72 2097.63 2112.2 2101.41 2107.16C2105.19 2102.12 2107.08 2095.19 2107.08 2086.37V2084.48C2107.08 2075.71 2105.16 2068.8 2101.34 2063.76C2097.51 2058.67 2092.31 2056.13 2085.73 2056.13ZM2154.48 2116.4V2048.85H2163.51V2063.62H2164C2166.29 2058.3 2169.46 2054.17 2173.52 2051.23C2177.63 2048.24 2182.25 2046.75 2187.38 2046.75C2191.21 2046.75 2194.55 2047.5 2197.39 2048.99C2200.24 2050.44 2202.88 2052.75 2205.3 2055.92L2197.32 2064.39C2195.18 2061.68 2192.94 2059.75 2190.6 2058.58C2188.27 2057.37 2185.56 2056.76 2182.48 2056.76C2176.84 2056.76 2172.36 2059.19 2169.04 2064.04C2165.73 2068.85 2164.07 2075.43 2164.07 2083.78V2116.4H2154.48ZM2136 2122V2113.53H2187.87V2122H2136ZM2137.4 2057.32V2048.85H2159.24V2057.32H2137.4ZM2252.71 2124.1C2246.08 2124.1 2240.27 2122.54 2235.28 2119.41C2230.28 2116.28 2226.41 2111.9 2223.66 2106.25C2220.9 2100.56 2219.53 2093.95 2219.53 2086.44V2084.41C2219.53 2076.85 2220.9 2070.25 2223.66 2064.6C2226.41 2058.95 2230.28 2054.57 2235.28 2051.44C2240.27 2048.31 2246.08 2046.75 2252.71 2046.75C2259.38 2046.75 2265.19 2048.31 2270.14 2051.44C2275.13 2054.57 2279 2058.95 2281.76 2064.6C2284.51 2070.25 2285.89 2076.85 2285.89 2084.41V2086.44C2285.89 2093.95 2284.51 2100.56 2281.76 2106.25C2279 2111.9 2275.13 2116.28 2270.14 2119.41C2265.19 2122.54 2259.38 2124.1 2252.71 2124.1ZM2252.71 2114.58C2259.8 2114.58 2265.38 2112.08 2269.44 2107.09C2273.5 2102.05 2275.53 2095.1 2275.53 2086.23V2084.62C2275.53 2075.75 2273.5 2068.82 2269.44 2063.83C2265.38 2058.79 2259.8 2056.27 2252.71 2056.27C2245.61 2056.27 2240.04 2058.79 2235.98 2063.83C2231.92 2068.82 2229.89 2075.75 2229.89 2084.62V2086.23C2229.89 2095.1 2231.92 2102.05 2235.98 2107.09C2240.04 2112.08 2245.61 2114.58 2252.71 2114.58ZM2334.76 2124.1C2328.7 2124.1 2323.35 2122.54 2318.73 2119.41C2314.16 2116.28 2310.59 2111.92 2308.02 2106.32C2305.46 2100.72 2304.17 2094.21 2304.17 2086.79V2083.92C2304.17 2076.41 2305.41 2069.87 2307.88 2064.32C2310.4 2058.77 2313.9 2054.45 2318.38 2051.37C2322.91 2048.29 2328.18 2046.75 2334.2 2046.75C2339.34 2046.75 2343.79 2047.92 2347.57 2050.25C2351.4 2052.54 2354.53 2055.71 2356.95 2059.77H2357.3V2019.8H2367.17V2122H2358.35V2109.61H2357.93C2355.65 2114.14 2352.52 2117.68 2348.55 2120.25C2344.59 2122.82 2339.99 2124.1 2334.76 2124.1ZM2336.09 2114.72C2342.67 2114.72 2347.92 2112.15 2351.84 2107.02C2355.76 2101.89 2357.72 2094.98 2357.72 2086.3V2084.41C2357.72 2075.78 2355.76 2068.92 2351.84 2063.83C2347.97 2058.7 2342.72 2056.13 2336.09 2056.13C2329.33 2056.13 2324.01 2058.65 2320.13 2063.69C2316.31 2068.68 2314.39 2075.59 2314.39 2084.41V2086.3C2314.39 2095.03 2316.33 2101.96 2320.2 2107.09C2324.12 2112.18 2329.42 2114.72 2336.09 2114.72ZM2416.12 2124.1C2408.6 2124.1 2402.61 2121.74 2398.13 2117.03C2393.65 2112.27 2391.41 2105.67 2391.41 2097.22V2048.85H2401.28V2095.82C2401.28 2102.03 2402.7 2106.76 2405.55 2110.03C2408.44 2113.3 2412.64 2114.93 2418.15 2114.93C2424.07 2114.93 2428.97 2112.76 2432.85 2108.42C2436.72 2104.03 2438.66 2098.29 2438.66 2091.2V2048.85H2448.46V2122H2439.43V2110.66H2439.01C2436.58 2114.77 2433.45 2118.03 2429.63 2120.46C2425.8 2122.89 2421.3 2124.1 2416.12 2124.1ZM2510.14 2124.1C2503.24 2124.1 2497.17 2122.54 2491.94 2119.41C2486.72 2116.24 2482.66 2111.83 2479.76 2106.18C2476.87 2100.49 2475.42 2093.91 2475.42 2086.44V2084.34C2475.42 2076.87 2476.82 2070.32 2479.62 2064.67C2482.42 2059.02 2486.32 2054.64 2491.31 2051.51C2496.35 2048.34 2502.19 2046.75 2508.81 2046.75C2515.07 2046.75 2520.32 2048.08 2524.56 2050.74C2528.86 2053.35 2532.64 2057.2 2535.9 2062.29L2528.13 2068.45C2525.99 2064.53 2523.33 2061.54 2520.15 2059.49C2516.98 2057.44 2513.22 2056.41 2508.88 2056.41C2501.74 2056.41 2496.07 2058.86 2491.87 2063.76C2487.72 2068.66 2485.64 2075.36 2485.64 2083.85V2087.07C2485.64 2095.38 2487.84 2102.03 2492.22 2107.02C2496.66 2111.97 2502.56 2114.44 2509.93 2114.44C2514.23 2114.44 2518.03 2113.48 2521.34 2111.57C2524.7 2109.61 2527.78 2106.53 2530.58 2102.33L2537.86 2108.91C2535.48 2112.32 2532.87 2115.14 2530.02 2117.38C2527.18 2119.62 2524.1 2121.3 2520.78 2122.42C2517.47 2123.54 2513.92 2124.1 2510.14 2124.1ZM2600.18 2124.1C2592.52 2124.1 2586.55 2121.88 2582.26 2117.45C2577.96 2112.97 2575.82 2106.74 2575.82 2098.76V2029.18H2585.83V2097.92C2585.83 2103.61 2586.99 2107.81 2589.33 2110.52C2591.66 2113.23 2595.28 2114.58 2600.18 2114.58C2605.73 2114.58 2610.84 2112.18 2615.51 2107.37L2621.67 2114.72C2615.65 2120.97 2608.48 2124.1 2600.18 2124.1ZM2555.03 2058.09V2048.85H2617.05V2058.09H2555.03ZM2754.49 2124.1C2748.42 2124.1 2743.08 2122.54 2738.46 2119.41C2733.89 2116.28 2730.32 2111.92 2727.75 2106.32C2725.18 2100.72 2723.9 2094.21 2723.9 2086.79V2083.92C2723.9 2076.41 2725.14 2069.87 2727.61 2064.32C2730.13 2058.77 2733.63 2054.45 2738.11 2051.37C2742.64 2048.29 2747.91 2046.75 2753.93 2046.75C2759.06 2046.75 2763.52 2047.92 2767.3 2050.25C2771.13 2052.54 2774.25 2055.71 2776.68 2059.77H2777.03V2019.8H2786.9V2122H2778.08V2109.61H2777.66C2775.37 2114.14 2772.25 2117.68 2768.28 2120.25C2764.31 2122.82 2759.72 2124.1 2754.49 2124.1ZM2755.82 2114.72C2762.4 2114.72 2767.65 2112.15 2771.57 2107.02C2775.49 2101.89 2777.45 2094.98 2777.45 2086.3V2084.41C2777.45 2075.78 2775.49 2068.92 2771.57 2063.83C2767.7 2058.7 2762.45 2056.13 2755.82 2056.13C2749.05 2056.13 2743.73 2058.65 2739.86 2063.69C2736.03 2068.68 2734.12 2075.59 2734.12 2084.41V2086.3C2734.12 2095.03 2736.06 2101.96 2739.93 2107.09C2743.85 2112.18 2749.15 2114.72 2755.82 2114.72ZM2842.42 2124.1C2835.61 2124.1 2829.64 2122.54 2824.5 2119.41C2819.42 2116.28 2815.45 2111.9 2812.6 2106.25C2809.8 2100.6 2808.4 2094.02 2808.4 2086.51V2083.5C2808.4 2076.13 2809.78 2069.69 2812.53 2064.18C2815.33 2058.67 2819.25 2054.4 2824.29 2051.37C2829.33 2048.29 2835.19 2046.75 2841.86 2046.75C2847.88 2046.75 2853.13 2048.08 2857.61 2050.74C2862.09 2053.35 2865.57 2057.06 2868.04 2061.87C2870.52 2066.63 2871.75 2072.21 2871.75 2078.6C2871.75 2080.33 2871.71 2082.01 2871.61 2083.64C2871.52 2085.27 2871.36 2086.91 2871.12 2088.54H2815.26V2079.16H2861.39V2078.6C2861.39 2071.79 2859.6 2066.35 2856 2062.29C2852.46 2058.18 2847.67 2056.13 2841.65 2056.13C2834.61 2056.13 2828.98 2058.6 2824.78 2063.55C2820.58 2068.45 2818.48 2075.22 2818.48 2083.85V2086.16C2818.48 2094.84 2820.68 2101.75 2825.06 2106.88C2829.45 2111.97 2835.38 2114.51 2842.84 2114.51C2851.85 2114.51 2858.78 2110.57 2863.63 2102.68L2871.26 2108.84C2868 2114.02 2864.01 2117.87 2859.29 2120.39C2854.58 2122.86 2848.96 2124.1 2842.42 2124.1ZM2890.6 2122V2048.85H2900.19V2058.23H2900.61C2901.78 2054.64 2903.6 2051.84 2906.07 2049.83C2908.54 2047.78 2911.44 2046.75 2914.75 2046.75C2918.62 2046.75 2921.73 2048.15 2924.06 2050.95C2926.39 2053.7 2927.72 2057.58 2928.05 2062.57L2927.14 2061.66C2928.31 2056.9 2930.36 2053.24 2933.3 2050.67C2936.24 2048.06 2939.62 2046.75 2943.45 2046.75C2953.44 2046.75 2958.43 2054.08 2958.43 2068.73V2122H2948V2067.96C2948 2063.53 2947.32 2060.42 2945.97 2058.65C2944.66 2056.83 2942.73 2055.92 2940.16 2055.92C2937.17 2055.92 2934.68 2057.27 2932.67 2059.98C2930.66 2062.69 2929.66 2066.58 2929.66 2071.67V2122H2919.23V2067.96C2919.23 2063.57 2918.58 2060.47 2917.27 2058.65C2915.96 2056.83 2914.05 2055.92 2911.53 2055.92C2908.54 2055.92 2906.05 2057.27 2904.04 2059.98C2902.03 2062.69 2901.03 2066.58 2901.03 2071.67V2122H2890.6ZM3008.21 2124.1C3001.59 2124.1 2995.78 2122.54 2990.78 2119.41C2985.79 2116.28 2981.92 2111.9 2979.16 2106.25C2976.41 2100.56 2975.03 2093.95 2975.03 2086.44V2084.41C2975.03 2076.85 2976.41 2070.25 2979.16 2064.6C2981.92 2058.95 2985.79 2054.57 2990.78 2051.44C2995.78 2048.31 3001.59 2046.75 3008.21 2046.75C3014.89 2046.75 3020.7 2048.31 3025.64 2051.44C3030.64 2054.57 3034.51 2058.95 3037.26 2064.6C3040.02 2070.25 3041.39 2076.85 3041.39 2084.41V2086.44C3041.39 2093.95 3040.02 2100.56 3037.26 2106.25C3034.51 2111.9 3030.64 2116.28 3025.64 2119.41C3020.7 2122.54 3014.89 2124.1 3008.21 2124.1ZM3008.21 2114.58C3015.31 2114.58 3020.88 2112.08 3024.94 2107.09C3029 2102.05 3031.03 2095.1 3031.03 2086.23V2084.62C3031.03 2075.75 3029 2068.82 3024.94 2063.83C3020.88 2058.79 3015.31 2056.27 3008.21 2056.27C3001.12 2056.27 2995.54 2058.79 2991.48 2063.83C2987.42 2068.82 2985.39 2075.75 2985.39 2084.62V2086.23C2985.39 2095.1 2987.42 2102.05 2991.48 2107.09C2995.54 2112.08 3001.12 2114.58 3008.21 2114.58ZM3161.83 2116.4V2048.85H3170.86V2063.62H3171.35C3173.63 2058.3 3176.81 2054.17 3180.87 2051.23C3184.97 2048.24 3189.59 2046.75 3194.73 2046.75C3198.55 2046.75 3201.89 2047.5 3204.74 2048.99C3207.58 2050.44 3210.22 2052.75 3212.65 2055.92L3204.67 2064.39C3202.52 2061.68 3200.28 2059.75 3197.95 2058.58C3195.61 2057.37 3192.91 2056.76 3189.83 2056.76C3184.18 2056.76 3179.7 2059.19 3176.39 2064.04C3173.07 2068.85 3171.42 2075.43 3171.42 2083.78V2116.4H3161.83ZM3143.35 2122V2113.53H3195.22V2122H3143.35ZM3144.75 2057.32V2048.85H3166.59V2057.32H3144.75ZM3262.15 2124.1C3255.34 2124.1 3249.36 2122.54 3244.23 2119.41C3239.14 2116.28 3235.18 2111.9 3232.33 2106.25C3229.53 2100.6 3228.13 2094.02 3228.13 2086.51V2083.5C3228.13 2076.13 3229.51 2069.69 3232.26 2064.18C3235.06 2058.67 3238.98 2054.4 3244.02 2051.37C3249.06 2048.29 3254.92 2046.75 3261.59 2046.75C3267.61 2046.75 3272.86 2048.08 3277.34 2050.74C3281.82 2053.35 3285.3 2057.06 3287.77 2061.87C3290.24 2066.63 3291.48 2072.21 3291.48 2078.6C3291.48 2080.33 3291.43 2082.01 3291.34 2083.64C3291.25 2085.27 3291.08 2086.91 3290.85 2088.54H3234.99V2079.16H3281.12V2078.6C3281.12 2071.79 3279.32 2066.35 3275.73 2062.29C3272.18 2058.18 3267.4 2056.13 3261.38 2056.13C3254.33 2056.13 3248.71 2058.6 3244.51 2063.55C3240.31 2068.45 3238.21 2075.22 3238.21 2083.85V2086.16C3238.21 2094.84 3240.4 2101.75 3244.79 2106.88C3249.18 2111.97 3255.1 2114.51 3262.57 2114.51C3271.58 2114.51 3278.51 2110.57 3283.36 2102.68L3290.99 2108.84C3287.72 2114.02 3283.73 2117.87 3279.02 2120.39C3274.31 2122.86 3268.68 2124.1 3262.15 2124.1ZM3349.6 2124.1C3342.69 2124.1 3336.62 2122.54 3331.4 2119.41C3326.17 2116.24 3322.11 2111.83 3319.22 2106.18C3316.32 2100.49 3314.88 2093.91 3314.88 2086.44V2084.34C3314.88 2076.87 3316.28 2070.32 3319.08 2064.67C3321.88 2059.02 3325.77 2054.64 3330.77 2051.51C3335.81 2048.34 3341.64 2046.75 3348.27 2046.75C3354.52 2046.75 3359.77 2048.08 3364.02 2050.74C3368.31 2053.35 3372.09 2057.2 3375.36 2062.29L3367.59 2068.45C3365.44 2064.53 3362.78 2061.54 3359.61 2059.49C3356.43 2057.44 3352.68 2056.41 3348.34 2056.41C3341.2 2056.41 3335.53 2058.86 3331.33 2063.76C3327.17 2068.66 3325.1 2075.36 3325.1 2083.85V2087.07C3325.1 2095.38 3327.29 2102.03 3331.68 2107.02C3336.11 2111.97 3342.01 2114.44 3349.39 2114.44C3353.68 2114.44 3357.48 2113.48 3360.8 2111.57C3364.16 2109.61 3367.24 2106.53 3370.04 2102.33L3377.32 2108.91C3374.94 2112.32 3372.32 2115.14 3369.48 2117.38C3366.63 2119.62 3363.55 2121.3 3360.24 2122.42C3356.92 2123.54 3353.38 2124.1 3349.6 2124.1ZM3427.94 2124.1C3421.31 2124.1 3415.5 2122.54 3410.51 2119.41C3405.52 2116.28 3401.64 2111.9 3398.89 2106.25C3396.14 2100.56 3394.76 2093.95 3394.76 2086.44V2084.41C3394.76 2076.85 3396.14 2070.25 3398.89 2064.6C3401.64 2058.95 3405.52 2054.57 3410.51 2051.44C3415.5 2048.31 3421.31 2046.75 3427.94 2046.75C3434.61 2046.75 3440.42 2048.31 3445.37 2051.44C3450.36 2054.57 3454.24 2058.95 3456.99 2064.6C3459.74 2070.25 3461.12 2076.85 3461.12 2084.41V2086.44C3461.12 2093.95 3459.74 2100.56 3456.99 2106.25C3454.24 2111.9 3450.36 2116.28 3445.37 2119.41C3440.42 2122.54 3434.61 2124.1 3427.94 2124.1ZM3427.94 2114.58C3435.03 2114.58 3440.61 2112.08 3444.67 2107.09C3448.73 2102.05 3450.76 2095.1 3450.76 2086.23V2084.62C3450.76 2075.75 3448.73 2068.82 3444.67 2063.83C3440.61 2058.79 3435.03 2056.27 3427.94 2056.27C3420.85 2056.27 3415.27 2058.79 3411.21 2063.83C3407.15 2068.82 3405.12 2075.75 3405.12 2084.62V2086.23C3405.12 2095.1 3407.15 2102.05 3411.21 2107.09C3415.27 2112.08 3420.85 2114.58 3427.94 2114.58ZM3497.61 2116.4V2048.85H3506.64V2063.62H3507.13C3509.41 2058.3 3512.59 2054.17 3516.65 2051.23C3520.75 2048.24 3525.37 2046.75 3530.51 2046.75C3534.33 2046.75 3537.67 2047.5 3540.52 2048.99C3543.36 2050.44 3546 2052.75 3548.43 2055.92L3540.45 2064.39C3538.3 2061.68 3536.06 2059.75 3533.73 2058.58C3531.39 2057.37 3528.69 2056.76 3525.61 2056.76C3519.96 2056.76 3515.48 2059.19 3512.17 2064.04C3508.85 2068.85 3507.2 2075.43 3507.2 2083.78V2116.4H3497.61ZM3479.13 2122V2113.53H3531V2122H3479.13ZM3480.53 2057.32V2048.85H3502.37V2057.32H3480.53ZM3593.94 2124.1C3587.88 2124.1 3582.53 2122.54 3577.91 2119.41C3573.34 2116.28 3569.77 2111.92 3567.2 2106.32C3564.64 2100.72 3563.35 2094.21 3563.35 2086.79V2083.92C3563.35 2076.41 3564.59 2069.87 3567.06 2064.32C3569.58 2058.77 3573.08 2054.45 3577.56 2051.37C3582.09 2048.29 3587.36 2046.75 3593.38 2046.75C3598.52 2046.75 3602.97 2047.92 3606.75 2050.25C3610.58 2052.54 3613.71 2055.71 3616.13 2059.77H3616.48V2019.8H3626.35V2122H3617.53V2109.61H3617.11C3614.83 2114.14 3611.7 2117.68 3607.73 2120.25C3603.77 2122.82 3599.17 2124.1 3593.94 2124.1ZM3595.27 2114.72C3601.85 2114.72 3607.1 2112.15 3611.02 2107.02C3614.94 2101.89 3616.9 2094.98 3616.9 2086.3V2084.41C3616.9 2075.78 3614.94 2068.92 3611.02 2063.83C3607.15 2058.7 3601.9 2056.13 3595.27 2056.13C3588.51 2056.13 3583.19 2058.65 3579.31 2063.69C3575.49 2068.68 3573.57 2075.59 3573.57 2084.41V2086.3C3573.57 2095.03 3575.51 2101.96 3579.38 2107.09C3583.3 2112.18 3588.6 2114.72 3595.27 2114.72ZM3681.88 2124.1C3675.06 2124.1 3669.09 2122.54 3663.96 2119.41C3658.87 2116.28 3654.9 2111.9 3652.06 2106.25C3649.26 2100.6 3647.86 2094.02 3647.86 2086.51V2083.5C3647.86 2076.13 3649.23 2069.69 3651.99 2064.18C3654.79 2058.67 3658.71 2054.4 3663.75 2051.37C3668.79 2048.29 3674.64 2046.75 3681.32 2046.75C3687.34 2046.75 3692.59 2048.08 3697.07 2050.74C3701.55 2053.35 3705.02 2057.06 3707.5 2061.87C3709.97 2066.63 3711.21 2072.21 3711.21 2078.6C3711.21 2080.33 3711.16 2082.01 3711.07 2083.64C3710.97 2085.27 3710.81 2086.91 3710.58 2088.54H3654.72V2079.16H3700.85V2078.6C3700.85 2071.79 3699.05 2066.35 3695.46 2062.29C3691.91 2058.18 3687.13 2056.13 3681.11 2056.13C3674.06 2056.13 3668.44 2058.6 3664.24 2063.55C3660.04 2068.45 3657.94 2075.22 3657.94 2083.85V2086.16C3657.94 2094.84 3660.13 2101.75 3664.52 2106.88C3668.9 2111.97 3674.83 2114.51 3682.3 2114.51C3691.3 2114.51 3698.23 2110.57 3703.09 2102.68L3710.72 2108.84C3707.45 2114.02 3703.46 2117.87 3698.75 2120.39C3694.03 2122.86 3688.41 2124.1 3681.88 2124.1ZM3749.44 2116.4V2048.85H3758.47V2063.62H3758.96C3761.25 2058.3 3764.42 2054.17 3768.48 2051.23C3772.59 2048.24 3777.21 2046.75 3782.34 2046.75C3786.17 2046.75 3789.51 2047.5 3792.35 2048.99C3795.2 2050.44 3797.84 2052.75 3800.26 2055.92L3792.28 2064.39C3790.14 2061.68 3787.9 2059.75 3785.56 2058.58C3783.23 2057.37 3780.52 2056.76 3777.44 2056.76C3771.8 2056.76 3767.32 2059.19 3764 2064.04C3760.69 2068.85 3759.03 2075.43 3759.03 2083.78V2116.4H3749.44ZM3730.96 2122V2113.53H3782.83V2122H3730.96ZM3732.36 2057.32V2048.85H3754.2V2057.32H3732.36ZM3964.79 2125.36L3917.61 2075.17C3913.41 2070.69 3910.03 2066.72 3907.46 2063.27C3904.94 2059.82 3903.1 2056.57 3901.93 2053.54C3900.81 2050.51 3900.25 2047.43 3900.25 2044.3V2044.16C3900.25 2039.35 3901.37 2035.11 3903.61 2031.42C3905.85 2027.73 3908.96 2024.86 3912.92 2022.81C3916.89 2020.71 3921.42 2019.66 3926.5 2019.66C3932.76 2019.66 3938.08 2021.04 3942.46 2023.79C3946.85 2026.5 3950.96 2031.05 3954.78 2037.44L3945.82 2043.6C3943.02 2038.51 3940.08 2034.9 3937 2032.75C3933.92 2030.56 3930.21 2029.46 3925.87 2029.46C3921.35 2029.46 3917.68 2030.72 3914.88 2033.24C3912.13 2035.76 3910.75 2039.24 3910.75 2043.67V2044.44C3910.75 2047.66 3911.71 2050.95 3913.62 2054.31C3915.58 2057.67 3919.18 2062.13 3924.4 2067.68L3971.93 2118.29L3964.79 2125.36ZM3922.72 2124.1C3916.75 2124.1 3911.59 2122.86 3907.25 2120.39C3902.91 2117.92 3899.55 2114.51 3897.17 2110.17C3894.84 2105.78 3893.67 2100.77 3893.67 2095.12V2093.86C3893.67 2086.35 3895.56 2080.09 3899.34 2075.1C3903.17 2070.06 3908.61 2066.07 3915.65 2063.13L3923.42 2070.48C3916.94 2072.35 3912.08 2075.17 3908.86 2078.95C3905.64 2082.68 3904.03 2087.49 3904.03 2093.37V2095.54C3904.03 2101.42 3905.67 2106.02 3908.93 2109.33C3912.25 2112.64 3916.89 2114.3 3922.86 2114.3C3928.23 2114.3 3932.85 2112.64 3936.72 2109.33C3940.64 2106.02 3944.1 2100.74 3947.08 2093.51C3950.07 2086.28 3952.82 2076.76 3955.34 2064.95L3965.7 2067.05C3963.04 2079.6 3959.68 2090.13 3955.62 2098.62C3951.56 2107.07 3946.8 2113.44 3941.34 2117.73C3935.88 2121.98 3929.68 2124.1 3922.72 2124.1ZM4101.6 2124.1C4094.79 2124.1 4088.82 2122.54 4083.68 2119.41C4078.6 2116.28 4074.63 2111.9 4071.78 2106.25C4068.98 2100.6 4067.58 2094.02 4067.58 2086.51V2083.5C4067.58 2076.13 4068.96 2069.69 4071.71 2064.18C4074.51 2058.67 4078.43 2054.4 4083.47 2051.37C4088.51 2048.29 4094.37 2046.75 4101.04 2046.75C4107.06 2046.75 4112.31 2048.08 4116.79 2050.74C4121.27 2053.35 4124.75 2057.06 4127.22 2061.87C4129.7 2066.63 4130.93 2072.21 4130.93 2078.6C4130.93 2080.33 4130.89 2082.01 4130.79 2083.64C4130.7 2085.27 4130.54 2086.91 4130.3 2088.54H4074.44V2079.16H4120.57V2078.6C4120.57 2071.79 4118.78 2066.35 4115.18 2062.29C4111.64 2058.18 4106.85 2056.13 4100.83 2056.13C4093.79 2056.13 4088.16 2058.6 4083.96 2063.55C4079.76 2068.45 4077.66 2075.22 4077.66 2083.85V2086.16C4077.66 2094.84 4079.86 2101.75 4084.24 2106.88C4088.63 2111.97 4094.56 2114.51 4102.02 2114.51C4111.03 2114.51 4117.96 2110.57 4122.81 2102.68L4130.44 2108.84C4127.18 2114.02 4123.19 2117.87 4118.47 2120.39C4113.76 2122.86 4108.14 2124.1 4101.6 2124.1ZM4181.56 2124.1C4175.49 2124.1 4170.15 2122.54 4165.53 2119.41C4160.96 2116.28 4157.39 2111.92 4154.82 2106.32C4152.25 2100.72 4150.97 2094.21 4150.97 2086.79V2083.92C4150.97 2076.41 4152.21 2069.87 4154.68 2064.32C4157.2 2058.77 4160.7 2054.45 4165.18 2051.37C4169.71 2048.29 4174.98 2046.75 4181 2046.75C4186.13 2046.75 4190.59 2047.92 4194.37 2050.25C4198.2 2052.54 4201.32 2055.71 4203.75 2059.77H4204.1V2019.8H4213.97V2122H4205.15V2109.61H4204.73C4202.44 2114.14 4199.32 2117.68 4195.35 2120.25C4191.38 2122.82 4186.79 2124.1 4181.56 2124.1ZM4182.89 2114.72C4189.47 2114.72 4194.72 2112.15 4198.64 2107.02C4202.56 2101.89 4204.52 2094.98 4204.52 2086.3V2084.41C4204.52 2075.78 4202.56 2068.92 4198.64 2063.83C4194.77 2058.7 4189.52 2056.13 4182.89 2056.13C4176.12 2056.13 4170.8 2058.65 4166.93 2063.69C4163.1 2068.68 4161.19 2075.59 4161.19 2084.41V2086.3C4161.19 2095.03 4163.13 2101.96 4167 2107.09C4170.92 2112.18 4176.22 2114.72 4182.89 2114.72ZM4265.71 2117.31V2048.85H4275.37V2117.31H4265.71ZM4240.44 2122V2113.46H4299.94V2122H4240.44ZM4241.84 2057.39V2048.85H4271.31V2057.39H4241.84ZM4268.86 2031.77C4266.2 2031.77 4263.92 2030.81 4262 2028.9C4260.14 2026.99 4259.2 2024.7 4259.2 2022.04C4259.2 2019.33 4260.14 2017.07 4262 2015.25C4263.92 2013.43 4266.2 2012.52 4268.86 2012.52C4271.62 2012.52 4273.88 2013.43 4275.65 2015.25C4277.47 2017.07 4278.38 2019.36 4278.38 2022.11C4278.38 2024.72 4277.47 2026.99 4275.65 2028.9C4273.88 2030.81 4271.62 2031.77 4268.86 2031.77ZM4363.03 2124.1C4355.38 2124.1 4349.4 2121.88 4345.11 2117.45C4340.82 2112.97 4338.67 2106.74 4338.67 2098.76V2029.18H4348.68V2097.92C4348.68 2103.61 4349.85 2107.81 4352.18 2110.52C4354.51 2113.23 4358.13 2114.58 4363.03 2114.58C4368.58 2114.58 4373.69 2112.18 4378.36 2107.37L4384.52 2114.72C4378.5 2120.97 4371.34 2124.1 4363.03 2124.1ZM4317.88 2058.09V2048.85H4379.9V2058.09H4317.88ZM4435.29 2124.1C4428.66 2124.1 4422.85 2122.54 4417.86 2119.41C4412.86 2116.28 4408.99 2111.9 4406.24 2106.25C4403.48 2100.56 4402.11 2093.95 4402.11 2086.44V2084.41C4402.11 2076.85 4403.48 2070.25 4406.24 2064.6C4408.99 2058.95 4412.86 2054.57 4417.86 2051.44C4422.85 2048.31 4428.66 2046.75 4435.29 2046.75C4441.96 2046.75 4447.77 2048.31 4452.72 2051.44C4457.71 2054.57 4461.58 2058.95 4464.34 2064.6C4467.09 2070.25 4468.47 2076.85 4468.47 2084.41V2086.44C4468.47 2093.95 4467.09 2100.56 4464.34 2106.25C4461.58 2111.9 4457.71 2116.28 4452.72 2119.41C4447.77 2122.54 4441.96 2124.1 4435.29 2124.1ZM4435.29 2114.58C4442.38 2114.58 4447.96 2112.08 4452.02 2107.09C4456.08 2102.05 4458.11 2095.1 4458.11 2086.23V2084.62C4458.11 2075.75 4456.08 2068.82 4452.02 2063.83C4447.96 2058.79 4442.38 2056.27 4435.29 2056.27C4428.19 2056.27 4422.62 2058.79 4418.56 2063.83C4414.5 2068.82 4412.47 2075.75 4412.47 2084.62V2086.23C4412.47 2095.1 4414.5 2102.05 4418.56 2107.09C4422.62 2112.08 4428.19 2114.58 4435.29 2114.58ZM4504.95 2116.4V2048.85H4513.98V2063.62H4514.47C4516.76 2058.3 4519.93 2054.17 4523.99 2051.23C4528.1 2048.24 4532.72 2046.75 4537.85 2046.75C4541.68 2046.75 4545.01 2047.5 4547.86 2048.99C4550.71 2050.44 4553.34 2052.75 4555.77 2055.92L4547.79 2064.39C4545.64 2061.68 4543.4 2059.75 4541.07 2058.58C4538.74 2057.37 4536.03 2056.76 4532.95 2056.76C4527.3 2056.76 4522.82 2059.19 4519.51 2064.04C4516.2 2068.85 4514.54 2075.43 4514.54 2083.78V2116.4H4504.95ZM4486.47 2122V2113.53H4538.34V2122H4486.47ZM4487.87 2057.32V2048.85H4509.71V2057.32H4487.87ZM4698.81 2124.1C4691.16 2124.1 4685.18 2121.88 4680.89 2117.45C4676.6 2112.97 4674.45 2106.74 4674.45 2098.76V2029.18H4684.46V2097.92C4684.46 2103.61 4685.63 2107.81 4687.96 2110.52C4690.29 2113.23 4693.91 2114.58 4698.81 2114.58C4704.36 2114.58 4709.47 2112.18 4714.14 2107.37L4720.3 2114.72C4714.28 2120.97 4707.12 2124.1 4698.81 2124.1ZM4653.66 2058.09V2048.85H4715.68V2058.09H4653.66ZM4771.07 2124.1C4764.44 2124.1 4758.63 2122.54 4753.64 2119.41C4748.64 2116.28 4744.77 2111.9 4742.02 2106.25C4739.26 2100.56 4737.89 2093.95 4737.89 2086.44V2084.41C4737.89 2076.85 4739.26 2070.25 4742.02 2064.6C4744.77 2058.95 4748.64 2054.57 4753.64 2051.44C4758.63 2048.31 4764.44 2046.75 4771.07 2046.75C4777.74 2046.75 4783.55 2048.31 4788.5 2051.44C4793.49 2054.57 4797.36 2058.95 4800.12 2064.6C4802.87 2070.25 4804.25 2076.85 4804.25 2084.41V2086.44C4804.25 2093.95 4802.87 2100.56 4800.12 2106.25C4797.36 2111.9 4793.49 2116.28 4788.5 2119.41C4783.55 2122.54 4777.74 2124.1 4771.07 2124.1ZM4771.07 2114.58C4778.16 2114.58 4783.74 2112.08 4787.8 2107.09C4791.86 2102.05 4793.89 2095.1 4793.89 2086.23V2084.62C4793.89 2075.75 4791.86 2068.82 4787.8 2063.83C4783.74 2058.79 4778.16 2056.27 4771.07 2056.27C4763.97 2056.27 4758.4 2058.79 4754.34 2063.83C4750.28 2068.82 4748.25 2075.75 4748.25 2084.62V2086.23C4748.25 2095.1 4750.28 2102.05 4754.34 2107.09C4758.4 2112.08 4763.97 2114.58 4771.07 2114.58ZM4855.01 2124.1C4848.39 2124.1 4842.58 2122.54 4837.58 2119.41C4832.59 2116.28 4828.72 2111.9 4825.96 2106.25C4823.21 2100.56 4821.83 2093.95 4821.83 2086.44V2084.41C4821.83 2076.85 4823.21 2070.25 4825.96 2064.6C4828.72 2058.95 4832.59 2054.57 4837.58 2051.44C4842.58 2048.31 4848.39 2046.75 4855.01 2046.75C4861.69 2046.75 4867.5 2048.31 4872.44 2051.44C4877.44 2054.57 4881.31 2058.95 4884.06 2064.6C4886.82 2070.25 4888.19 2076.85 4888.19 2084.41V2086.44C4888.19 2093.95 4886.82 2100.56 4884.06 2106.25C4881.31 2111.9 4877.44 2116.28 4872.44 2119.41C4867.5 2122.54 4861.69 2124.1 4855.01 2124.1ZM4855.01 2114.58C4862.11 2114.58 4867.68 2112.08 4871.74 2107.09C4875.8 2102.05 4877.83 2095.1 4877.83 2086.23V2084.62C4877.83 2075.75 4875.8 2068.82 4871.74 2063.83C4867.68 2058.79 4862.11 2056.27 4855.01 2056.27C4847.92 2056.27 4842.34 2058.79 4838.28 2063.83C4834.22 2068.82 4832.19 2075.75 4832.19 2084.62V2086.23C4832.19 2095.1 4834.22 2102.05 4838.28 2107.09C4842.34 2112.08 4847.92 2114.58 4855.01 2114.58ZM4951.49 2124.1C4944.25 2124.1 4938.54 2121.95 4934.34 2117.66C4930.14 2113.32 4928.04 2107.42 4928.04 2099.95V2019.8H4937.84V2098.69C4937.84 2109.28 4942.48 2114.58 4951.77 2114.58C4954.43 2114.58 4956.9 2114.07 4959.19 2113.04C4961.47 2112.01 4963.88 2110.36 4966.4 2108.07L4972.42 2115.84C4969.52 2118.55 4966.3 2120.6 4962.76 2122C4959.26 2123.4 4955.5 2124.1 4951.49 2124.1ZM4906.06 2029.04V2019.8H4931.68V2029.04H4906.06Z" fill="black"/>
<rect x="2600" y="540" width="720" height="720" rx="256" fill="black"/>
<rect x="2923.44" y="773.438" width="84.375" height="253.125" rx="42.1875" fill="white"/>
<rect x="2756.09" y="773.438" width="84.375" height="253.125" rx="42.1875" fill="white"/>
<rect x="3090.78" y="773.438" width="84.375" height="253.125" rx="42.1875" fill="white"/>
</svg>
